<svg xmlns="http://www.w3.org/2000/svg" viewBox="0 0 400 600" width="400" height="600">
  <defs>
    <style>
      .title { fill: #6c8ebf; font-weight: bold; font-size: 14px; font-family: sans-serif; }
      .phase { fill: #d6b656; font-size: 12px; font-family: sans-serif; }
      .note { fill: #9673a6; font-size: 11px; font-style: italic; font-family: sans-serif; }
      .box-title { fill: #1a1a1a; }
      .box-phase { fill: #333; }
      .box-note { fill: #333; }
    </style>
  </defs>
  <!-- ś -->
  <rect x="60" y="20" width="280" height="40" rx="6" fill="#dae8fc" stroke="#6c8ebf"/>
  <text x="200" y="45" text-anchor="middle" class="title box-title">Node.js ŗ÷¬»</text>
  <!-- 1. timers -->
  <rect x="60" y="80" width="280" height="50" rx="6" fill="#fff2cc" stroke="#d6b656"/>
  <text x="200" y="102" text-anchor="middle" class="phase box-phase">1. timers</text>
  <text x="200" y="118" text-anchor="middle" class="phase box-phase">setTimeout, setInterval</text>
  <!-- 2. pending callbacks -->
  <rect x="60" y="150" width="280" height="50" rx="6" fill="#fff2cc" stroke="#d6b656"/>
  <text x="200" y="172" text-anchor="middle" class="phase box-phase">2. pending callbacks</text>
  <text x="200" y="188" text-anchor="middle" class="phase box-phase">¹▀═\ä▐é TCP ’	</text>
  <!-- 3. idle, prepare -->
  <rect x="60" y="220" width="280" height="50" rx="6" fill="#fff2cc" stroke="#d6b656"/>
  <text x="200" y="242" text-anchor="middle" class="phase box-phase">3. idle, prepare</text>
  <text x="200" y="258" text-anchor="middle" class="phase box-phase">ģĶ(</text>
  <!-- 4. poll -->
  <rect x="60" y="290" width="280" height="50" rx="6" fill="#fff2cc" stroke="#d6b656"/>
  <text x="200" y="312" text-anchor="middle" class="phase box-phase">4. poll</text>
  <text x="200" y="328" text-anchor="middle" class="phase box-phase">I/O ▐ć÷Q▄I	</text>
  <!-- 5. check -->
  <rect x="60" y="360" width="280" height="50" rx="6" fill="#fff2cc" stroke="#d6b656"/>
  <text x="200" y="382" text-anchor="middle" class="phase box-phase">5. check</text>
  <text x="200" y="398" text-anchor="middle" class="phase box-phase">setImmediate</text>
  <!-- 6. close callbacks -->
  <rect x="60" y="430" width="280" height="50" rx="6" fill="#fff2cc" stroke="#d6b656"/>
  <text x="200" y="452" text-anchor="middle" class="phase box-phase">6. close callbacks</text>
  <text x="200" y="468" text-anchor="middle" class="phase box-phase">sĒŗ÷▐é socket.close	</text>
  <!-- Ł4 -->
  <path d="M200 60 L200 75 M195 70 L200 80 L205 70" fill="none" stroke="#333" stroke-width="1.5"/>
  <path d="M200 130 L200 145 M195 140 L200 150 L205 140" fill="none" stroke="#333" stroke-width="1.5"/>
  <path d="M200 200 L200 215 M195 210 L200 220 L205 210" fill="none" stroke="#333" stroke-width="1.5"/>
  <path d="M200 270 L200 285 M195 280 L200 290 L205 280" fill="none" stroke="#333" stroke-width="1.5"/>
  <path d="M200 340 L200 355 M195 350 L200 360 L205 350" fill="none" stroke="#333" stroke-width="1.5"/>
  <path d="M200 410 L200 425 M195 420 L200 430 L205 420" fill="none" stroke="#333" stroke-width="1.5"/>
  <path d="M200 480 L200 495 M195 490 L200 500 L205 490" fill="none" stroke="#333" stroke-width="1.5"/>
  <!-- ¶ -->
  <rect x="60" y="500" width="280" height="50" rx="6" fill="#e1d5e7" stroke="#9673a6"/>
  <text x="200" y="522" text-anchor="middle" class="note box-note">Ž*6ĄK¶²gL</text>
  <text x="200" y="538" text-anchor="middle" class="note box-note">process.nextTick ī Promise «¹Ī</text>
</svg>
